<svg width="4305" height="867" viewBox="0 0 4305 867" fill="none" xmlns="http://www.w3.org/2000/svg">
<g clip-path="url(#clip0)">
<rect width="4305" height="867" fill="white"/>
<path d="M1548 835C1700 835 1821 742 1821 568V110H1683V558C1683 651 1632 700 1548 700C1466 700 1414 651 1414 558V110H1276V568C1276 742 1397 835 1548 835ZM2297.36 834C2496.36 834 2598.36 702 2625.36 593L2496.36 554C2477.36 620 2418.36 699 2297.36 699C2183.36 699 2077.36 616 2077.36 465C2077.36 304 2189.36 228 2295.36 228C2418.36 228 2473.36 303 2490.36 371L2620.36 330C2592.36 215 2491.36 95 2295.36 95C2105.36 95 1934.36 239 1934.36 465C1934.36 691 2099.36 834 2297.36 834ZM3194.03 819V687H2878.03V110H2740.03V819H3194.03ZM3439.6 819V110H3299.6V819H3439.6ZM3739.36 691V238H3850.36C3966.36 238 4062.36 311 4062.36 465C4062.36 619 3965.36 691 3849.36 691H3739.36ZM3854.36 819C4056.36 819 4205.36 689 4205.36 465C4205.36 241 4057.36 110 3855.36 110H3601.36V819H3854.36Z" fill="#0000B9"/>
<rect width="88" height="562" transform="matrix(-4.37114e-08 -1 -1 4.37114e-08 900.413 145.503)" fill="#CEAD39"/>
<rect width="88" height="561" transform="matrix(-4.37114e-08 -1 -1 4.37114e-08 772.413 660.503)" fill="#CEAD39"/>
<rect width="88" height="619" transform="matrix(-4.37114e-08 -1 -1 4.37114e-08 900.413 812.503)" fill="#CEAD39"/>
<rect width="88" height="549" transform="matrix(-4.37114e-08 -1 -1 4.37114e-08 1019.41 297.503)" fill="#CEAD39"/>
<path d="M369.395 860.503C133.806 581.068 140.216 384.718 365.957 108.619C369.987 103.69 377.626 103.683 381.562 108.687L887.457 751.712C891.144 756.399 898.228 756.703 902.438 752.48C1179.17 474.895 1108.69 284.785 835.967 5.50293" stroke="#0000B9" stroke-width="150"/>
<path d="M1097.75 224.598C1087.45 203.205 958.835 -54.2227 782.413 56.9999L870.413 -254L1097.75 224.598C1098.19 225.517 1098.41 226 1098.41 226L1097.75 224.598Z" fill="white"/>
<path d="M782.413 56.9999C966.413 -59.0001 1098.41 226 1098.41 226L870.413 -254L782.413 56.9999Z" stroke="white"/>
<path d="M135.063 605.338C142.666 628.601 236.083 900.262 425.413 813.5L296.992 1109.73L135.063 605.338C134.725 604.305 134.557 603.762 134.557 603.762L135.063 605.338Z" fill="white"/>
<path d="M425.413 813.5C227.674 904.115 134.557 603.762 134.557 603.762L296.992 1109.73L425.413 813.5Z" stroke="white"/>
</g>
<defs>
<clipPath id="clip0">
<rect width="4305" height="867" fill="white"/>
</clipPath>
</defs>
</svg>
